# xmcd
#
# Track frame offsets: 
#        150
#        6207
#        26867
#        38655
#        52309
#        94837
#        118520
#        139825
#        150598
#        164792
#        197565
#        236133
#        248589
#        256047
#        274890
#        281200
#
# Disc length: 3990 seconds
#
# Revision: 0
# Processed by: cddbd v1.5.2PL0 Copyright (c) Steve Scherf et al.
# Submitted via: ExactAudioCopy v1.0b1
#
DISCID=e70f9410
DTITLE=James Brown - Live at The Garden Vol. 2
DYEAR=1967
DGENRE=Funk
TTITLE0=Introduction  Out Of Sight
TTITLE1=Bring It Up
TTITLE2=Try Me
TTITLE3=Come Rain Or Come Shine
TTITLE4=Papa's Got A Brand New Bag
TTITLE5=Prisoner Of Love
TTITLE6=Maybe The Last Time
TTITLE7=I Got You (I Feel Good)
TTITLE8=James Brown Thank You
TTITLE9=It's A Man's Man's Man's World
TTITLE10=Ain't That A Groove
TTITLE11=Please, Please, Please
TTITLE12=Bring It Up (Finale)
TTITLE13=Let Yourself Go (Instrumental jam)
TTITLE14=Let Yourself Go (False Start)
TTITLE15=Let Yourself Go (Extended Released Version)
EXTD=
EXTT0=
EXTT1=
EXTT2=
EXTT3=
EXTT4=
EXTT5=
EXTT6=
EXTT7=
EXTT8=
EXTT9=
EXTT10=
EXTT11=
EXTT12=
EXTT13=
EXTT14=
EXTT15=
PLAYORDER=
